<svg xmlns="http://www.w3.org/2000/svg" xmlns:xlink="http://www.w3.org/1999/xlink" version="1.1" id="Capa_1" x="0" y="0" viewBox="0 0 483.08 483.08" xml:space="preserve" enable-background="new 0 0 483.083 483.083">
  <path d="M332.74 315.35c30.88-33.43 50.15-78.2 50.15-127.5C382.89 84.43 298.74 0 195.04 0S7.19 84.43 7.19 187.85 91.34 375.7 195.04 375.7c42.22 0 81.03-13.88 112.48-37.4l139.68 139.68c3.4 3.4 7.65 5.1 11.9 5.1s8.78-1.7 11.9-5.1c6.52-6.52 6.52-17.28 0-24.08L332.74 315.35zM41.19 187.85C41.19 103.13 110.04 34 195.04 34c84.72 0 153.85 68.85 153.85 153.85S280.04 341.7 195.04 341.7 41.19 272.57 41.19 187.85z"/>
</svg>
