<?xml version="1.0" encoding="UTF-8" standalone="no"?>
<svg
   xmlns:dc="http://purl.org/dc/elements/1.1/"
   xmlns:cc="http://creativecommons.org/ns#"
   xmlns:rdf="http://www.w3.org/1999/02/22-rdf-syntax-ns#"
   xmlns:svg="http://www.w3.org/2000/svg"
   xmlns="http://www.w3.org/2000/svg"
   xmlns:sodipodi="http://sodipodi.sourceforge.net/DTD/sodipodi-0.dtd"
   xmlns:inkscape="http://www.inkscape.org/namespaces/inkscape"
   version="1.1"
   id="Capa_1"
   x="0"
   y="0"
   viewBox="0 0 483.08 483.08"
   xml:space="preserve"
   enable-background="new 0 0 483.083 483.083"
   inkscape:version="0.91 r13725"
   sodipodi:docname="search.svg"><metadata
     id="metadata3343"><rdf:RDF><cc:Work
         rdf:about=""><dc:format>image/svg+xml</dc:format><dc:type
           rdf:resource="http://purl.org/dc/dcmitype/StillImage" /></cc:Work></rdf:RDF></metadata><defs
     id="defs3341"><filter
       style="color-interpolation-filters:sRGB;"
       inkscape:label="Fade to Black or White"
       id="filter3345"><feColorMatrix
         values="0 0 0 0 1 0 0 0 0 1 0 0 0 0 1 0 0 0 1 0"
         id="feColorMatrix3347" /></filter></defs><sodipodi:namedview
     pagecolor="#ffffff"
     bordercolor="#666666"
     borderopacity="1"
     objecttolerance="10"
     gridtolerance="10"
     guidetolerance="10"
     inkscape:pageopacity="0"
     inkscape:pageshadow="2"
     inkscape:window-width="1440"
     inkscape:window-height="877"
     id="namedview3339"
     showgrid="false"
     inkscape:zoom="1.4655958"
     inkscape:cx="241.53999"
     inkscape:cy="241.53999"
     inkscape:window-x="1358"
     inkscape:window-y="-8"
     inkscape:window-maximized="1"
     inkscape:current-layer="Capa_1" /><path
     d="M332.74 315.35c30.88-33.43 50.15-78.2 50.15-127.5C382.89 84.43 298.74 0 195.04 0S7.19 84.43 7.19 187.85 91.34 375.7 195.04 375.7c42.22 0 81.03-13.88 112.48-37.4l139.68 139.68c3.4 3.4 7.65 5.1 11.9 5.1s8.78-1.7 11.9-5.1c6.52-6.52 6.52-17.28 0-24.08L332.74 315.35zM41.19 187.85C41.19 103.13 110.04 34 195.04 34c84.72 0 153.85 68.85 153.85 153.85S280.04 341.7 195.04 341.7 41.19 272.57 41.19 187.85z"
     id="path3337"
     style="filter:url(#filter3345)" /></svg>